<?xml version="1.0" encoding="UTF-8"?>
<svg id="Layer_1" data-name="Layer 1" xmlns="http://www.w3.org/2000/svg" xmlns:xlink="http://www.w3.org/1999/xlink" viewBox="0 0 250 250">
  <defs>
    <style>
      .cls-1 {
        fill: #b85742;
      }

      .cls-2 {
        fill: #dd5339;
      }

      .cls-3 {
        fill: #eab155;
        opacity: .3;
      }

      .cls-4, .cls-5 {
        fill: #cbe0f4;
      }

      .cls-6 {
        fill: url(#linear-gradient-2);
      }

      .cls-7 {
        fill: #aeaeb6;
      }

      .cls-8 {
        fill: #1a4755;
      }

      .cls-9 {
        fill: #98d5c7;
      }

      .cls-10 {
        letter-spacing: 0em;
      }

      .cls-11 {
        fill: #3d5f9e;
      }

      .cls-12 {
        fill: #fff;
      }

      .cls-13 {
        fill: #13375b;
      }

      .cls-5 {
        opacity: .6;
      }

      .cls-14 {
        letter-spacing: -.02em;
      }

      .cls-15 {
        fill: #8cb0dd;
      }

      .cls-16 {
        fill: #f58d80;
      }

      .cls-17 {
        fill: #f37559;
        opacity: .5;
      }

      .cls-18 {
        fill: #edac5c;
      }

      .cls-19 {
        fill: #115972;
      }

      .cls-20 {
        fill: #f37458;
      }

      .cls-21 {
        fill: #eb9389;
      }

      .cls-22 {
        fill: #476eb5;
      }

      .cls-23 {
        fill: #554d61;
      }

      .cls-24 {
        fill: #f8a592;
      }

      .cls-25 {
        fill: #f8cc7f;
      }

      .cls-26 {
        fill: #cce9e5;
      }

      .cls-27 {
        fill: url(#radial-gradient);
      }

      .cls-28 {
        fill: #a0bfe4;
      }

      .cls-29 {
        fill: #f8a491;
      }

      .cls-30 {
        fill: #3cb4c5;
        opacity: .2;
      }

      .cls-31 {
        fill: #e15b44;
      }

      .cls-32 {
        fill: none;
        stroke: #2d2d2d;
        stroke-miterlimit: 10;
      }

      .cls-33 {
        fill: #52c0a6;
      }

      .cls-34 {
        fill: #2d2d2d;
        font-family: Roboto-Medium, Roboto;
        font-size: 14px;
        font-weight: 500;
      }

      .cls-35 {
        fill: #f27b6a;
      }

      .cls-36 {
        fill: url(#linear-gradient);
      }

      .cls-37 {
        fill: #12355a;
      }

      .cls-38 {
        fill: #3c8f7c;
      }

      .cls-39 {
        letter-spacing: -.01em;
      }

      .cls-40 {
        fill: #476fb6;
      }

      .cls-41 {
        fill: #00a4cc;
      }
    </style>
    <radialGradient id="radial-gradient" cx="52.37" cy="121.74" fx="52.37" fy="121.74" r="31.91" gradientUnits="userSpaceOnUse">
      <stop offset="0" stop-color="#ffdd91"/>
      <stop offset=".99" stop-color="#fee557"/>
    </radialGradient>
    <linearGradient id="linear-gradient" x1="141.02" y1="118.73" x2="145.32" y2="118.73" gradientUnits="userSpaceOnUse">
      <stop offset="0" stop-color="#09556e"/>
      <stop offset="1" stop-color="#00a8d1"/>
    </linearGradient>
    <linearGradient id="linear-gradient-2" x1="204.56" y1="216.85" x2="210.4" y2="216.85" xlink:href="#linear-gradient"/>
  </defs>
  <rect class="cls-12" width="250" height="250"/>
  <g>
    <path class="cls-28" d="m102.49,174.65v-.26c.68,0,1.36-.03,2.03-.09l.02.26c-.68.06-1.37.09-2.05.09Zm-2.05-.09c-.68-.06-1.36-.16-2.03-.28l.05-.26c.66.12,1.34.22,2.01.28l-.02.26Zm6.13-.28l-.05-.26c.66-.12,1.33-.28,1.97-.46l.07.25c-.66.19-1.33.34-2,.47Zm-10.16-.46c-.66-.19-1.31-.4-1.95-.65l.09-.24c.63.24,1.28.46,1.92.64l-.07.25Zm14.1-.66l-.09-.24c.63-.24,1.25-.52,1.85-.82l.12.23c-.61.3-1.24.58-1.88.83Zm-17.93-.82c-.61-.3-1.21-.64-1.79-1l.14-.22c.57.35,1.17.69,1.77.99l-.12.23Zm21.6-1.01l-.14-.22c.57-.35,1.13-.74,1.67-1.15l.16.21c-.54.41-1.11.8-1.69,1.16Zm-25.08-1.15c-.54-.41-1.08-.85-1.58-1.31l.18-.19c.5.45,1.02.89,1.56,1.3l-.16.21Zm28.35-1.33l-.18-.19c.5-.45.98-.94,1.43-1.43l.19.18c-.46.5-.95.99-1.45,1.45Zm-31.38-1.43c-.46-.5-.9-1.03-1.31-1.58l.21-.16c.41.54.84,1.06,1.3,1.56l-.19.18Zm34.14-1.6l-.21-.16c.41-.54.79-1.1,1.15-1.67l.22.14c-.36.58-.75,1.15-1.16,1.69Zm-36.62-1.67c-.36-.58-.7-1.18-1-1.79l.23-.12c.3.6.63,1.2.99,1.77l-.22.14Zm38.78-1.81l-.23-.12c.3-.6.58-1.23.82-1.86l.24.09c-.25.64-.53,1.27-.83,1.88Zm-40.61-1.85c-.25-.64-.47-1.29-.65-1.95l.25-.07c.18.65.4,1.29.65,1.92l-.24.09Zm42.1-1.97l-.25-.07c.18-.65.34-1.31.46-1.97l.26.05c-.12.67-.28,1.34-.47,2Zm-43.22-1.97c-.12-.67-.22-1.35-.28-2.03l.26-.02c.06.67.16,1.35.28,2.01l-.26.05Zm43.97-2.06l-.26-.02c.06-.67.09-1.35.09-2.03v-.05s.26,0,.26,0v.05c0,.68-.03,1.37-.09,2.05Zm-44.09-2.02h-.26v-.03c0-.67.03-1.36.09-2.02l.26.02c-.06.66-.09,1.33-.09,2v.03Zm43.82-2.1c-.06-.67-.16-1.35-.28-2.01l.26-.05c.13.67.22,1.35.29,2.03l-.26.02Zm-43.45-1.93l-.26-.05c.12-.67.28-1.34.47-2l.25.07c-.18.65-.34,1.31-.46,1.97Zm42.71-2.05c-.19-.65-.4-1.29-.65-1.92l.24-.1c.25.63.47,1.29.66,1.94l-.25.07Zm-41.6-1.85l-.24-.09c.25-.64.52-1.27.83-1.88l.23.12c-.3.6-.58,1.23-.82,1.86Zm40.13-1.92c-.3-.6-.64-1.2-.99-1.77l.22-.14c.36.58.7,1.18,1,1.79l-.23.12Zm-38.33-1.7l-.22-.14c.36-.58.75-1.15,1.16-1.69l.21.16c-.41.54-.79,1.1-1.15,1.67Zm36.19-1.73c-.41-.54-.84-1.06-1.3-1.56l.19-.18c.46.5.9,1.03,1.31,1.58l-.21.16Zm-33.75-1.5l-.19-.18c.46-.5.95-.99,1.45-1.45l.18.19c-.5.45-.98.94-1.43,1.44Zm31.01-1.49c-.5-.45-1.02-.89-1.56-1.29l.16-.21c.54.41,1.08.85,1.58,1.31l-.18.19Zm-28.02-1.25l-.16-.21c.54-.41,1.11-.8,1.69-1.16l.14.22c-.57.36-1.13.74-1.67,1.15Zm24.78-1.19c-.57-.35-1.17-.69-1.77-.99l.12-.23c.61.3,1.21.64,1.79,1l-.14.22Zm-21.34-.95l-.12-.23c.61-.31,1.24-.59,1.88-.83l.1.24c-.63.24-1.25.52-1.85.82Zm17.71-.85c-.63-.24-1.28-.46-1.92-.64l.07-.25c.66.18,1.31.4,1.95.65l-.09.24Zm-13.94-.62l-.07-.25c.66-.19,1.33-.35,2-.47l.05.26c-.66.12-1.33.28-1.97.47Zm10.04-.48c-.66-.12-1.34-.21-2.01-.27l.02-.26c.68.06,1.36.15,2.03.28l-.05.26Zm-6.06-.27l-.02-.26c.68-.06,1.37-.1,2.05-.1v.26c-.67,0-1.36.03-2.03.1Z"/>
    <path class="cls-28" d="m161.41,153.17v-.26c.68,0,1.36-.03,2.03-.09l.02.26c-.68.06-1.37.09-2.05.09Zm-2.05-.09c-.68-.06-1.36-.16-2.03-.28l.05-.26c.66.12,1.34.22,2.01.28l-.02.26Zm6.13-.28l-.05-.26c.66-.12,1.33-.28,1.97-.46l.07.25c-.66.19-1.33.34-2,.47Zm-10.16-.46c-.66-.19-1.31-.4-1.95-.65l.09-.24c.63.24,1.28.46,1.92.64l-.07.25Zm14.1-.66l-.09-.24c.63-.24,1.25-.52,1.85-.82l.12.23c-.61.3-1.24.58-1.88.83Zm-17.93-.82c-.61-.3-1.21-.64-1.79-1l.14-.22c.57.35,1.17.69,1.77.99l-.12.23Zm21.6-1.01l-.14-.22c.57-.35,1.13-.74,1.67-1.15l.16.21c-.54.41-1.11.8-1.69,1.16Zm-25.08-1.15c-.54-.41-1.08-.85-1.58-1.31l.18-.19c.5.45,1.02.89,1.56,1.3l-.16.21Zm28.35-1.33l-.18-.19c.5-.45.98-.94,1.43-1.43l.19.18c-.46.5-.95.99-1.45,1.45Zm-31.38-1.43c-.46-.5-.9-1.03-1.31-1.58l.21-.16c.41.54.84,1.06,1.3,1.56l-.19.18Zm-2.48-3.27c-.36-.58-.7-1.18-1-1.79l.23-.12c.3.6.63,1.2.99,1.77l-.22.14Zm38.78-1.81l-.23-.12c.3-.6.58-1.23.82-1.86l.24.09c-.25.64-.53,1.27-.83,1.88Zm-40.61-1.85c-.25-.64-.47-1.29-.65-1.95l.25-.07c.18.65.4,1.29.65,1.92l-.24.09Zm42.1-1.97l-.25-.07c.18-.65.34-1.31.46-1.97l.26.05c-.12.67-.28,1.34-.47,2Zm-43.22-1.97c-.12-.67-.22-1.35-.28-2.03l.26-.02c.06.67.16,1.35.28,2.01l-.26.05Zm43.97-2.06l-.26-.02c.06-.67.09-1.35.09-2.03v-.05s.26,0,.26,0v.05c0,.68-.03,1.37-.09,2.05Zm-44.09-2.02h-.26v-.03c0-.67.03-1.36.09-2.02l.26.02c-.06.66-.09,1.33-.09,2v.03Zm43.82-2.1c-.06-.67-.16-1.35-.28-2.01l.26-.05c.13.67.22,1.35.29,2.03l-.26.02Zm-43.45-1.93l-.26-.05c.12-.67.28-1.34.47-2l.25.07c-.18.65-.34,1.31-.46,1.97Zm42.71-2.05c-.19-.65-.4-1.29-.65-1.92l.24-.1c.25.63.47,1.29.66,1.94l-.25.07Zm-41.6-1.85l-.24-.09c.25-.64.52-1.27.83-1.88l.23.12c-.3.6-.58,1.23-.82,1.86Zm1.8-3.63l-.22-.14c.36-.58.75-1.15,1.16-1.69l.21.16c-.41.54-.79,1.1-1.15,1.67Zm36.19-1.73c-.41-.54-.84-1.06-1.3-1.56l.19-.18c.46.5.9,1.03,1.31,1.58l-.21.16Zm-33.75-1.5l-.19-.18c.46-.5.95-.99,1.45-1.45l.18.19c-.5.45-.98.94-1.43,1.44Zm31.01-1.49c-.5-.45-1.02-.89-1.56-1.29l.16-.21c.54.41,1.08.85,1.58,1.31l-.18.19Zm-28.02-1.25l-.16-.21c.54-.41,1.11-.8,1.69-1.16l.14.22c-.57.36-1.13.74-1.67,1.15Zm24.78-1.19c-.57-.35-1.17-.69-1.77-.99l.12-.23c.61.3,1.21.64,1.79,1l-.14.22Zm-21.34-.95l-.12-.23c.61-.31,1.24-.59,1.88-.83l.1.24c-.63.24-1.25.52-1.85.82Zm17.71-.85c-.63-.24-1.28-.46-1.92-.64l.07-.25c.66.18,1.31.4,1.95.65l-.09.24Zm-13.94-.62l-.07-.25c.66-.19,1.33-.35,2-.47l.05.26c-.66.12-1.33.28-1.97.47Zm10.04-.48c-.66-.12-1.34-.21-2.01-.27l.02-.26c.68.06,1.36.15,2.03.28l-.05.26Zm-6.06-.27l-.02-.26c.68-.06,1.37-.1,2.05-.1v.26c-.67,0-1.36.03-2.02.1Z"/>
    <path class="cls-28" d="m46.62,213.99v-.44c1.14,0,2.3-.05,3.43-.16l.04.44c-1.14.11-2.31.16-3.47.16Zm-3.47-.16c-1.15-.1-2.31-.26-3.44-.47l.08-.44c1.12.21,2.26.36,3.4.47l-.04.44Zm10.38-.48l-.08-.44c1.12-.21,2.25-.47,3.34-.78l.12.43c-1.11.32-2.25.58-3.38.79Zm-17.21-.78c-1.11-.31-2.22-.68-3.3-1.1l.16-.41c1.06.41,2.16.78,3.26,1.09l-.12.43Zm23.88-1.12l-.16-.41c1.06-.41,2.12-.88,3.14-1.39l.2.4c-1.03.52-2.1.99-3.18,1.41Zm-30.36-1.39c-1.03-.51-2.05-1.08-3.04-1.69l.23-.38c.97.6,1.98,1.16,3,1.67l-.2.4Zm36.57-1.71l-.23-.38c.97-.6,1.92-1.25,2.83-1.94l.27.35c-.92.7-1.88,1.36-2.86,1.97Zm-42.47-1.94c-.92-.7-1.82-1.44-2.67-2.22l.3-.33c.84.77,1.73,1.51,2.64,2.19l-.27.35Zm48.01-2.25l-.3-.33c.84-.77,1.66-1.59,2.43-2.43l.33.3c-.78.85-1.6,1.68-2.46,2.46Zm-53.14-2.43c-.78-.85-1.53-1.75-2.22-2.67l.35-.27c.69.91,1.43,1.8,2.2,2.64l-.33.3Zm57.82-2.7l-.35-.27c.69-.91,1.34-1.86,1.94-2.83l.38.23c-.61.98-1.27,1.94-1.97,2.87Zm-62.01-2.83c-.61-.98-1.18-2-1.7-3.03l.4-.2c.51,1.02,1.07,2.03,1.68,3l-.38.23Zm65.67-3.07l-.4-.2c.51-1.02.98-2.08,1.39-3.14l.41.16c-.42,1.08-.89,2.15-1.4,3.18Zm-68.77-3.14c-.42-1.08-.79-2.18-1.11-3.29l.43-.12c.31,1.1.68,2.19,1.09,3.25l-.41.16Zm71.28-3.34l-.43-.12c.31-1.1.57-2.22.78-3.34l.44.08c-.21,1.14-.48,2.27-.79,3.38Zm-73.18-3.34c-.21-1.13-.37-2.29-.48-3.44l.44-.04c.11,1.14.26,2.28.47,3.4l-.44.08Zm74.45-3.48l-.44-.04c.1-1.13.16-2.29.16-3.43v-.09s.44,0,.44,0v.09c0,1.16-.05,2.33-.16,3.47Zm-74.65-3.43h-.44v-.04c0-1.14.05-2.3.15-3.43l.44.04c-.1,1.12-.15,2.26-.15,3.39v.04Zm74.2-3.56c-.11-1.14-.27-2.28-.48-3.4l.44-.08c.21,1.13.38,2.29.48,3.44l-.44.04Zm-73.58-3.27l-.44-.08c.21-1.14.47-2.27.79-3.38l.43.12c-.31,1.1-.57,2.22-.78,3.34Zm72.31-3.47c-.31-1.1-.68-2.19-1.1-3.25l.41-.16c.42,1.08.79,2.18,1.11,3.29l-.43.12Zm-70.45-3.13l-.41-.16c.42-1.08.89-2.15,1.4-3.18l.4.2c-.51,1.02-.97,2.08-1.38,3.14Zm67.95-3.26c-.51-1.02-1.08-2.03-1.68-2.99l.38-.23c.61.98,1.18,2,1.7,3.03l-.4.2Zm-64.9-2.89l-.38-.23c.61-.98,1.27-1.95,1.96-2.87l.35.27c-.69.91-1.34,1.86-1.94,2.83Zm61.27-2.94c-.69-.91-1.43-1.79-2.2-2.64l.33-.3c.78.85,1.53,1.75,2.23,2.67l-.35.27Zm-57.14-2.54l-.33-.3c.78-.85,1.6-1.68,2.45-2.46l.3.33c-.84.77-1.66,1.59-2.42,2.43Zm52.51-2.52c-.84-.77-1.73-1.5-2.65-2.19l.27-.35c.92.69,1.82,1.44,2.68,2.22l-.3.33Zm-47.44-2.11l-.27-.35c.92-.7,1.88-1.36,2.86-1.97l.23.38c-.97.6-1.92,1.26-2.83,1.95Zm41.96-2.01c-.97-.6-1.98-1.16-3-1.67l.2-.4c1.03.51,2.06,1.08,3.04,1.69l-.23.38Zm-36.14-1.61l-.2-.4c1.03-.52,2.1-.99,3.18-1.41l.16.41c-1.06.41-2.12.88-3.14,1.39Zm30-1.44c-1.06-.41-2.16-.78-3.26-1.08l.12-.43c1.11.31,2.22.68,3.3,1.1l-.16.41Zm-23.6-1.05l-.12-.43c1.11-.32,2.25-.59,3.38-.8l.08.44c-1.12.21-2.25.48-3.34.79Zm17-.81c-1.12-.21-2.26-.36-3.4-.46l.04-.44c1.15.1,2.31.26,3.44.47l-.08.44Zm-10.26-.45l-.04-.44c1.15-.11,2.31-.16,3.47-.16v.44c-1.14,0-2.3.06-3.43.16Z"/>
    <path class="cls-28" d="m176.36,233.35v-.44c1.14,0,2.3-.05,3.43-.16l.04.44c-1.14.11-2.31.16-3.47.16Zm-3.47-.16c-1.15-.1-2.31-.26-3.44-.47l.08-.44c1.12.21,2.26.36,3.4.47l-.04.44Zm10.38-.48l-.08-.44c1.12-.21,2.24-.47,3.34-.78l.12.43c-1.11.32-2.25.58-3.38.79Zm-17.2-.78c-1.11-.31-2.22-.68-3.29-1.1l.16-.41c1.06.41,2.16.78,3.25,1.09l-.12.43Zm23.87-1.12l-.16-.41c1.06-.41,2.12-.88,3.14-1.39l.2.4c-1.03.52-2.1.99-3.18,1.41Zm-30.34-1.39c-1.03-.51-2.05-1.08-3.03-1.69l.23-.38c.97.6,1.98,1.16,3,1.67l-.2.4Zm36.55-1.71l-.23-.38c.97-.6,1.92-1.25,2.83-1.94l.27.35c-.92.7-1.88,1.36-2.86,1.97Zm-42.45-1.94c-.92-.69-1.82-1.44-2.67-2.22l.3-.33c.84.77,1.73,1.51,2.64,2.19l-.27.35Zm47.98-2.25l-.3-.33c.84-.77,1.66-1.59,2.43-2.43l.33.3c-.78.85-1.6,1.68-2.46,2.46Zm-53.11-2.43c-.78-.85-1.53-1.75-2.22-2.67l.35-.27c.69.91,1.43,1.8,2.2,2.64l-.33.3Zm57.78-2.7l-.35-.27c.69-.91,1.34-1.86,1.94-2.83l.38.23c-.61.98-1.27,1.94-1.96,2.86Zm-61.97-2.83c-.61-.98-1.18-2-1.7-3.03l.4-.2c.51,1.02,1.07,2.03,1.68,2.99l-.38.23Zm65.63-3.07l-.4-.2c.51-1.02.98-2.08,1.39-3.14l.41.16c-.42,1.08-.89,2.14-1.4,3.18Zm-68.73-3.14c-.42-1.08-.79-2.18-1.11-3.29l.43-.12c.31,1.1.68,2.19,1.09,3.25l-.41.16Zm71.24-3.33l-.43-.12c.31-1.1.57-2.22.78-3.34l.44.08c-.21,1.13-.48,2.27-.79,3.38Zm-73.14-3.34c-.21-1.13-.37-2.29-.48-3.44l.44-.04c.11,1.14.26,2.28.47,3.4l-.44.08Zm-.2-6.91h-.44v-.04c0-1.14.05-2.29.15-3.42l.44.04c-.1,1.12-.15,2.26-.15,3.38v.04Zm74.16-3.56c-.11-1.14-.27-2.28-.48-3.4l.44-.08c.21,1.13.38,2.29.48,3.44l-.44.04Zm-73.54-3.27l-.44-.08c.21-1.13.47-2.27.79-3.38l.43.12c-.31,1.1-.57,2.22-.78,3.34Zm72.27-3.47c-.31-1.1-.68-2.19-1.1-3.25l.41-.16c.42,1.07.79,2.18,1.11,3.29l-.43.12Zm-70.41-3.13l-.41-.16c.42-1.08.89-2.15,1.4-3.18l.4.2c-.51,1.02-.97,2.08-1.38,3.14Zm67.92-3.26c-.51-1.02-1.08-2.03-1.68-2.99l.38-.23c.61.98,1.18,2,1.7,3.03l-.4.2Zm-64.86-2.88l-.38-.23c.61-.98,1.27-1.94,1.96-2.87l.35.27c-.69.91-1.34,1.86-1.94,2.83Zm61.24-2.93c-.69-.91-1.43-1.79-2.2-2.63l.33-.3c.78.85,1.53,1.75,2.23,2.67l-.35.27Zm-57.11-2.54l-.33-.3c.78-.85,1.6-1.68,2.45-2.46l.3.33c-.84.77-1.66,1.59-2.42,2.43Zm5.06-4.63l-.27-.35c.92-.7,1.88-1.36,2.86-1.97l.23.38c-.97.6-1.92,1.26-2.83,1.95Zm41.94-2.01c-.97-.6-1.98-1.16-3-1.67l.2-.4c1.03.51,2.05,1.08,3.04,1.69l-.23.38Zm-36.12-1.61l-.2-.4c1.03-.52,2.1-.99,3.17-1.41l.16.41c-1.06.41-2.12.88-3.14,1.39Zm29.98-1.44c-1.06-.41-2.16-.77-3.26-1.08l.12-.43c1.11.31,2.22.68,3.29,1.1l-.16.41Zm-23.59-1.05l-.12-.43c1.11-.32,2.25-.59,3.38-.8l.08.44c-1.12.21-2.24.48-3.34.79Zm16.99-.81c-1.12-.21-2.26-.36-3.4-.46l.04-.44c1.15.1,2.31.26,3.44.47l-.08.44Zm-10.26-.45l-.04-.44c1.14-.11,2.31-.16,3.47-.16v.44c-1.14,0-2.3.06-3.43.16Z"/>
    <path class="cls-28" d="m91.84,163.2v-.35c.91,0,1.82-.04,2.72-.13l.03.35c-.91.08-1.83.13-2.75.13Zm-2.75-.12c-.91-.08-1.83-.21-2.73-.38l.06-.35c.89.16,1.79.29,2.69.37l-.03.35Zm8.22-.38l-.06-.35c.89-.17,1.78-.37,2.65-.62l.1.34c-.88.25-1.78.46-2.68.63Zm-13.63-.62c-.88-.25-1.76-.54-2.61-.87l.13-.33c.84.33,1.71.62,2.58.86l-.1.34Zm18.92-.88l-.13-.33c.84-.33,1.68-.7,2.49-1.1l.16.31c-.82.41-1.66.78-2.52,1.11Zm-24.04-1.1c-.82-.41-1.63-.86-2.4-1.34l.19-.3c.77.48,1.57.92,2.38,1.32l-.16.31Zm28.96-1.36l-.19-.3c.77-.48,1.52-.99,2.24-1.54l.21.28c-.73.55-1.49,1.08-2.27,1.56Zm-33.64-1.54c-.73-.55-1.44-1.14-2.12-1.76l.24-.26c.67.61,1.37,1.19,2.09,1.74l-.21.28Zm38.02-1.78l-.24-.26c.67-.61,1.31-1.26,1.92-1.92l.26.24c-.62.68-1.27,1.33-1.95,1.95Zm-42.09-1.92c-.62-.68-1.21-1.39-1.76-2.11l.28-.21c.55.72,1.13,1.42,1.74,2.09l-.26.24Zm45.79-2.14l-.28-.21c.55-.72,1.06-1.48,1.54-2.24l.3.19c-.48.78-1.01,1.54-1.56,2.27Zm-49.11-2.24c-.48-.78-.93-1.58-1.34-2.4l.31-.16c.4.81.85,1.61,1.33,2.37l-.3.19Zm52.01-2.43l-.31-.16c.4-.81.77-1.65,1.1-2.49l.33.13c-.33.85-.7,1.7-1.11,2.52Zm-54.47-2.49c-.33-.85-.63-1.73-.88-2.61l.34-.1c.25.87.54,1.74.87,2.58l-.33.13Zm56.46-2.64l-.34-.1c.25-.87.45-1.76.62-2.65l.35.06c-.17.9-.38,1.8-.63,2.68Zm-57.96-2.65c-.17-.9-.3-1.81-.38-2.73l.35-.03c.08.9.21,1.81.38,2.69l-.35.06Zm58.97-2.76l-.35-.03c.08-.9.12-1.81.12-2.72v-.07s.35,0,.35,0v.07c0,.92-.04,1.84-.12,2.75Zm-59.12-2.71h-.35v-.03c0-.9.04-1.82.12-2.71l.35.03c-.08.89-.12,1.79-.12,2.68v.03Zm58.77-2.82c-.08-.9-.21-1.81-.38-2.69l.35-.06c.17.9.3,1.81.38,2.72l-.35.03Zm-58.28-2.59l-.35-.06c.17-.9.38-1.8.62-2.68l.34.1c-.25.87-.45,1.76-.62,2.65Zm57.27-2.75c-.25-.87-.54-1.74-.87-2.58l.33-.13c.33.85.63,1.73.88,2.61l-.34.1Zm-55.8-2.48l-.33-.13c.33-.85.7-1.7,1.11-2.52l.31.16c-.4.81-.77,1.65-1.1,2.49Zm53.82-2.58c-.4-.81-.85-1.6-1.33-2.37l.3-.19c.48.78.94,1.58,1.35,2.4l-.31.16Zm-51.4-2.29l-.3-.18c.48-.78,1-1.54,1.55-2.27l.28.21c-.54.72-1.06,1.48-1.54,2.24Zm48.53-2.32c-.55-.72-1.13-1.42-1.74-2.09l.26-.24c.62.67,1.21,1.39,1.76,2.11l-.28.21Zm-45.26-2.01l-.26-.24c.62-.68,1.27-1.33,1.94-1.95l.24.26c-.67.61-1.31,1.26-1.92,1.93Zm41.59-1.99c-.67-.61-1.37-1.19-2.1-1.73l.21-.28c.73.55,1.44,1.14,2.12,1.76l-.24.26Zm-37.58-1.67l-.21-.28c.73-.55,1.49-1.08,2.27-1.56l.19.3c-.77.48-1.52,1-2.24,1.54Zm33.24-1.6c-.77-.48-1.57-.92-2.38-1.32l.16-.31c.82.41,1.63.86,2.41,1.34l-.18.3Zm-28.62-1.28l-.16-.31c.82-.41,1.66-.79,2.51-1.12l.13.33c-.84.33-1.68.7-2.48,1.1Zm23.76-1.14c-.84-.32-1.71-.61-2.58-.86l.1-.34c.88.25,1.76.54,2.61.87l-.13.33Zm-18.7-.83l-.1-.34c.88-.25,1.78-.46,2.68-.63l.06.35c-.89.17-1.78.38-2.65.62Zm13.47-.64c-.89-.16-1.79-.29-2.69-.37l.03-.35c.91.08,1.83.21,2.73.37l-.06.35Zm-8.13-.36l-.03-.35c.91-.08,1.83-.13,2.75-.13v.35c-.91,0-1.82.04-2.72.13Z"/>
    <g>
      <path class="cls-28" d="m197.01,114.41c-13.98-.3-25.59,10.84-25.89,24.81-.3,13.98,10.84,25.59,24.81,25.89,13.98.3,25.59-10.84,25.89-24.81.3-13.98-10.84-25.59-24.81-25.89Zm-.11,44.47h0c-10.56.23-19.31-8.14-19.55-18.7h0c-.23-10.56,8.14-19.31,18.7-19.55h0c10.56-.23,19.31,8.14,19.55,18.7h0c.23,10.56-8.14,19.31-18.7,19.55Z"/>
      <path class="cls-28" d="m238.49,133.21c-.41-.74-1.11-.81-3-.95-2.34-.18-4.68-.28-7.02-.51-.43-.04-1.01-.44-1.18-.82-1.11-2.48-2.09-5.02-3.22-7.49-.33-.72-.38-1.17.13-1.8,1.8-2.22,3.55-4.48,5.31-6.73.29-.36.56-.74,1.04-1.38-3.1-2.91-6.16-5.78-9.3-8.73-2.63,2.27-5.05,4.29-7.38,6.4-.82.75-1.4.93-2.5.4-2.25-1.08-4.66-1.85-6.97-2.82-.35-.15-.75-.63-.8-1.01-.42-2.87-.85-5.74-1.1-8.63-.12-1.39-.71-1.83-1.98-1.79-.49.02-.99-.14-1.48-.22-2.22.05-4.44.1-6.66.15-.24.08-.47.2-.71.23-2.56.33-2.15.12-2.34,2.52-.24,2.92-.43,5.85-.61,8.39-3.35,1.5-6.48,2.91-9.71,4.36-2.76-2.16-5.64-4.42-8.55-6.69-3.46,2.63-6.23,5.76-8.7,9.27,2.23,2.58,4.4,5.1,6.59,7.61.39.45.54.78.25,1.43-1.12,2.57-2.19,5.17-3.13,7.8-.27.76-.61.96-1.32,1.04-2.92.35-5.84.76-8.76,1.12-.73.09-1.1.32-1.21,1.14-.49,3.68-.19,7.32.43,10.96.12.72.56.82,1.17.85,2.85.17,5.7.42,8.56.57.82.04,1.2.27,1.52,1.12,1.11,2.93,2.39,5.8,3.71,8.92-1.96,2.51-4.19,5.35-6.42,8.2,2.66,3.53,5.69,6.49,9.28,8.9,2.8-2.45,5.53-4.83,8-6.99,2.88,1.02,5.54,2.04,8.25,2.88,1.02.32,1.43.77,1.53,1.82.27,2.8.66,5.59,1.02,8.39.07.55.01,1.28.92,1.25,3.7-.11,7.41-.22,11.11-.33.79-.02,1.05-.44,1.1-1.22.16-2.9.45-5.79.56-8.69.04-1.12.58-1.46,1.5-1.83,2.28-.92,4.56-1.88,6.72-3.05.93-.5,1.41-.45,2.18.19,2.49,2.07,5.06,4.03,7.55,6,2.28-1.29,7.4-6.77,8.85-9.43-2.17-2.47-4.35-4.99-6.59-7.44-.56-.61-.52-1.04-.22-1.77.97-2.36,1.76-4.78,2.71-7.15.16-.4.68-.86,1.08-.92,2.58-.37,5.17-.65,7.75-.93,1.45-.16,2.03-.21,2.31-.77l-.26-11.81Zm-23.85,25.51c-5.06,4.85-11.71,7.44-18.73,7.29-7.01-.15-13.55-3.02-18.4-8.08-4.85-5.06-7.44-11.71-7.3-18.73.15-7.01,3.02-13.55,8.08-18.4,5.06-4.85,11.71-7.44,18.73-7.29,7.01.15,13.55,3.02,18.4,8.08,4.85,5.06,7.44,11.71,7.29,18.73-.15,7.01-3.02,13.55-8.08,18.4Z"/>
    </g>
    <g>
      <path class="cls-19" d="m157.6,95.53l-.74,4.73,3.43-2.39,10.44-5.04-8,.55s-4.09.9-4.31,1.09c-.22.19-.82,1.05-.82,1.05Z"/>
      <polygon class="cls-41" points="154.13 92.59 170.73 92.84 157.6 95.53 154.13 92.59"/>
      <polygon class="cls-41" points="162.83 100.43 158.56 96.84 170.73 92.84 162.83 100.43"/>
    </g>
    <g>
      <path class="cls-28" d="m134.09,112.07c.06-.38.14-.76.24-1.13.09-.34.2-.69.33-1.03l.37.14c-.12.33-.23.66-.32.99-.1.36-.18.72-.23,1.09-.02.11-.03.21-.04.32l-.39-.05c.01-.11.03-.22.05-.33Zm1.73-4.44c.45-.69.97-1.37,1.57-2.02l.29.26c-.58.63-1.09,1.29-1.53,1.96l-.33-.21Zm12.41-.5s-.04-.03-.07-.05l.22-.32s.04.03.05.04c0,0,.01,0,.04.01.21.06.77.07,1.09-.11.27-.15.49-.39.65-.7l.35.18c-.2.38-.47.68-.8.86-.44.25-1.12.22-1.38.15-.06-.02-.11-.04-.15-.06Zm-8.98-3.26c.65-.53,1.34-1.02,2.07-1.48l.21.33c-.72.45-1.4.93-2.03,1.45l-.25-.3Zm7.49.17c0-.37.06-.76.17-1.14.06-.21.13-.42.21-.62l.36.15c-.08.19-.14.39-.2.58-.1.35-.15.71-.15,1.05,0,.24.02.49.06.73l-.38.07c-.05-.27-.07-.54-.07-.81Zm1.92-1.95l-.05-.02.17-.35.05.03c.8.41,1.45,1.07,1.79,1.82l-.36.16c-.3-.67-.89-1.26-1.61-1.63Zm-4.94-.64c.44-.12,1.23-.33,1.65-.34.32,0,.62,0,.9.01l-.02.39c-.28-.01-.56-.02-.87,0-.27,0-.84.13-1.55.33l-.11-.38Zm4.78-1.35c.57-.64,1.24-1.19,1.98-1.64l.2.33c-.71.43-1.34.96-1.89,1.57l-.29-.26Z"/>
      <path class="cls-28" d="m152.95,97.85c.41-.1.83-.17,1.24-.2l-.03-.39c-.43.03-.87.11-1.3.22l.1.38Z"/>
    </g>
    <path class="cls-4" d="m240.99,198.73c-1.04-.37-2.1-.71-3.13-1.1-.19-.07-.4-.32-.44-.52-.2-1.26-.33-2.54-.54-3.8-.06-.37-.03-.58.28-.8,1.09-.79,2.16-1.6,3.24-2.41.17-.13.35-.27.64-.5-1.05-1.7-2.09-3.39-3.16-5.11-1.47.71-2.82,1.33-4.15,2-.47.24-.75.25-1.19-.13-.89-.77-1.89-1.42-2.82-2.14-.14-.11-.26-.38-.24-.56.16-1.36.32-2.72.56-4.06.12-.64-.1-.92-.68-1.06-.23-.05-.43-.19-.65-.28-1.02-.25-2.03-.5-3.05-.75-.12,0-.24.03-.35.02-1.2-.17-.99-.21-1.38.86-.47,1.3-.92,2.61-1.31,3.74-1.71.27-3.3.53-4.95.79-.99-1.32-2.02-2.7-3.06-4.1-1.9.77-3.54,1.85-5.1,3.15.7,1.45,1.38,2.86,2.06,4.27.12.25.15.42-.06.68-.83,1.03-1.63,2.08-2.38,3.16-.22.31-.4.36-.73.31-1.37-.2-2.75-.37-4.12-.57-.34-.05-.54.01-.69.37-.68,1.62-.99,3.31-1.15,5.04-.03.34.15.44.43.53,1.28.43,2.54.89,3.82,1.31.37.12.51.27.55.7.14,1.47.37,2.93.59,4.51-1.2.9-2.57,1.92-3.93,2.94.78,1.93,1.79,3.65,3.13,5.19,1.58-.77,3.11-1.52,4.5-2.2,1.19.82,2.27,1.61,3.4,2.33.43.27.56.52.47,1.02-.22,1.31-.39,2.63-.57,3.94-.03.26-.15.58.27.68,1.7.41,3.4.81,5.09,1.22.36.09.53-.07.65-.42.43-1.3.92-2.58,1.32-3.88.16-.5.44-.59.91-.65,1.15-.14,2.31-.3,3.43-.56.49-.11.7-.03.97.36.88,1.25,1.81,2.46,2.7,3.66,1.2-.31,4.2-2.17,5.18-3.2-.69-1.39-1.36-2.8-2.08-4.2-.18-.35-.11-.54.12-.83.73-.95,1.39-1.96,2.11-2.92.12-.16.41-.31.6-.29,1.22.15,2.43.34,3.64.53.68.11.95.15,1.14-.06l1.33-5.41c-.09-.39-.41-.5-1.25-.8Zm-9.92.77c-1.19,4.83-6.08,7.78-10.91,6.59h0c-4.83-1.19-7.78-6.08-6.59-10.91h0c1.19-4.83,6.08-7.78,10.91-6.59h0c4.83,1.19,7.78,6.08,6.59,10.91h0Z"/>
    <g>
      <ellipse class="cls-7" cx="52.37" cy="173.84" rx="6.55" ry="4.06"/>
      <path class="cls-27" d="m52.37,87.62c-16.32,0-29.54,13.23-29.54,29.54,0,8.91,3.95,16.91,10.19,22.32.02.02,4.62,4.99,5.37,10.19l.14,3.18c.05,1.04.45,2.04,1.16,2.81.06.07.13.13.19.2h24.98c.07-.06.13-.13.19-.2.7-.77,1.11-1.77,1.16-2.81l.14-3.18c.76-5.2,5.35-10.16,5.37-10.19,6.24-5.42,10.19-13.41,10.19-22.32,0-16.32-13.23-29.54-29.54-29.54Z"/>
      <path class="cls-23" d="m39.81,155.86h25.11v5.88c0,6.93-5.62,12.55-12.55,12.55h0c-6.93,0-12.55-5.62-12.55-12.55v-5.88h0Z"/>
      <path class="cls-3" d="m59.77,139.75c-16.33,0-29.56-13.23-29.56-29.56,0-6.63,2.18-12.75,5.87-17.68-7.99,5.29-13.26,14.35-13.26,24.65,0,8.91,3.95,16.91,10.19,22.32.02.02,4.62,4.99,5.37,10.19l.14,3.18c.05,1.04.45,2.04,1.16,2.81.06.07.13.13.19.2h24.98c.07-.06.13-.13.19-.2.7-.77,1.11-1.77,1.16-2.81l.14-3.18c.76-5.2,5.35-10.16,5.37-10.19,1.58-1.37,3.01-2.91,4.27-4.58-4.66,3.06-10.23,4.84-16.21,4.84Z"/>
      <polygon class="cls-12" points="52.16 131.49 46.29 105.88 41.14 120.77 39.63 120.25 46.6 100.09 52.59 126.21 58.72 111.24 64.41 120.83 63.03 121.65 58.99 114.82 52.16 131.49"/>
      <g>
        <rect class="cls-23" x="41.08" y="117.27" width="2.84" height="42.56" rx="1.35" ry="1.35" transform="translate(-14.05 5.12) rotate(-5.92)"/>
        <path class="cls-23" d="m60.06,159.72h0c.78.08,1.48-.49,1.56-1.27l4.09-39.5c.08-.78-.49-1.48-1.27-1.56h0c-.78-.08-1.48.49-1.56,1.27l-4.09,39.5c-.08.78.49,1.48,1.27,1.56Z"/>
      </g>
      <path class="cls-7" d="m40.14,155.86h24.46c.77,0,1.39.62,1.39,1.39h0c0,.77-.62,1.39-1.39,1.39h-24.46c-.77,0-1.39-.62-1.39-1.39h0c0-.77.62-1.39,1.39-1.39Z"/>
      <path class="cls-7" d="m40.14,161.43h24.46c.77,0,1.39.62,1.39,1.39h0c0,.77-.62,1.39-1.39,1.39h-24.46c-.77,0-1.39-.62-1.39-1.39h0c0-.77.62-1.39,1.39-1.39Z"/>
      <path class="cls-7" d="m40.14,167.67h24.46c.77,0,1.39.62,1.39,1.39h0c0,.77-.62,1.39-1.39,1.39h-24.46c-.77,0-1.39-.62-1.39-1.39h0c0-.77.62-1.39,1.39-1.39Z"/>
    </g>
    <path class="cls-25" d="m91.09,133.88l1.02-1.87-.96-1.9c-.11-.22.08-.46.31-.42l2.09.39,1.51-1.5c.17-.17.46-.07.49.17l.27,2.11,1.89.97c.22.11.21.42,0,.52l-1.92.91-.34,2.1c-.04.24-.33.33-.5.15l-1.46-1.55-2.1.33c-.24.04-.42-.22-.3-.43Z"/>
    <path class="cls-25" d="m9.17,163.3l1.02-1.87-.96-1.9c-.11-.22.08-.46.31-.42l2.09.39,1.51-1.5c.17-.17.46-.07.5.17l.27,2.11,1.89.97c.22.11.21.42,0,.52l-1.92.91-.34,2.1c-.04.24-.33.33-.5.15l-1.46-1.55-2.1.33c-.24.04-.42-.22-.3-.43Z"/>
    <path class="cls-36" d="m142.19,120.72v-1.31s-1.09-.73-1.09-.73c-.12-.08-.1-.27.04-.32l1.24-.41.36-1.26c.04-.14.23-.18.32-.06l.77,1.05,1.3-.04c.15,0,.24.16.15.28l-.76,1.06.44,1.23c.05.14-.08.28-.22.23l-1.24-.39-1.03.8c-.12.09-.29,0-.29-.14Z"/>
    <path class="cls-6" d="m204.59,218.46l.86-1.61-.84-1.62c-.1-.18.06-.4.27-.36l1.8.32,1.28-1.3c.15-.15.4-.07.43.14l.25,1.81,1.63.82c.19.09.18.36,0,.45l-1.64.8-.27,1.81c-.03.21-.28.29-.43.14l-1.27-1.31-1.8.3c-.21.03-.36-.18-.26-.37Z"/>
    <rect class="cls-13" x="55.9" y="148.94" width="137.02" height="78.75"/>
    <rect class="cls-30" x="55.9" y="148.94" width="137.02" height="8.38"/>
    <path class="cls-31" d="m199.07,235.06H49.76c-3.7,0-6.7-3-6.7-6.7h162.71c0,3.7-3,6.7-6.7,6.7Z"/>
    <path class="cls-21" d="m205.49,230.22c.18-.59.28-1.22.28-1.86H43.06c0,.65.1,1.27.28,1.86h162.15Z"/>
    <rect class="cls-5" x="65.64" y="161.73" width="1.07" height="60.76"/>
    <rect class="cls-22" x="70.31" y="161.38" width="17.75" height="1.28"/>
    <rect class="cls-20" x="70.31" y="166.02" width="17.75" height="1.28"/>
    <rect class="cls-22" x="69.66" y="204.02" width="17.75" height="1.28"/>
    <rect class="cls-20" x="69.66" y="208.66" width="17.75" height="1.28"/>
    <rect class="cls-5" x="71.62" y="216.83" width="15.79" height="1.28"/>
    <rect class="cls-5" x="90.05" y="166.02" width="6.72" height="1.28"/>
    <rect class="cls-5" x="90.05" y="216.83" width="6.72" height="1.28"/>
    <rect class="cls-22" x="98.75" y="216.83" width="40.65" height="1.28"/>
    <rect class="cls-5" x="90.05" y="170.65" width="13.93" height="1.28"/>
    <rect class="cls-22" x="106.44" y="170.65" width="39.35" height="1.28"/>
    <rect class="cls-20" x="147.66" y="170.65" width="33.21" height="1.28"/>
    <rect class="cls-25" x="99.92" y="166.02" width="80.95" height="1.28"/>
    <rect class="cls-20" x="70.31" y="170.65" width="17.75" height="1.28"/>
    <rect class="cls-5" x="70.31" y="175.84" width="43.07" height="1.28"/>
    <rect class="cls-20" x="70.31" y="180.47" width="59.95" height="1.28"/>
    <rect class="cls-5" x="92.45" y="185.11" width="59.95" height="1.28"/>
    <rect class="cls-5" x="92.45" y="204.02" width="31.97" height="1.28"/>
    <rect class="cls-5" x="92.45" y="209.3" width="53.87" height="1.28"/>
    <rect class="cls-22" x="92.45" y="189.75" width="26.04" height="1.28"/>
    <rect class="cls-5" x="121.62" y="189.75" width="15.78" height="1.28"/>
    <rect class="cls-5" x="92.45" y="194.38" width="35.41" height="1.28"/>
    <rect class="cls-25" x="92.45" y="199.02" width="54.96" height="1.28"/>
    <path class="cls-37" d="m92.85,115.56l.52-.85-.42-.17c-.09-.04-.14-.14-.1-.23h0c.04-.09.14-.14.23-.1l.48.2.47-.76-.45-.18c-.09-.04-.14-.14-.1-.23h0c.04-.09.14-.14.23-.1l.51.21.54-.87c.05-.07.14-.1.22-.07l.08.03c.1.04.14.17.09.26l-.5.82.74.3.54-.87c.05-.07.14-.1.22-.07l.09.03c.1.04.14.17.09.26l-.5.82.42.17c.09.04.14.14.1.23h0c-.04.09-.14.14-.23.1l-.48-.2-.46.77.45.18c.09.04.14.14.1.23h0c-.04.09-.14.14-.23.1l-.51-.21-.55.9c-.05.07-.14.11-.22.07l-.09-.04c-.1-.04-.14-.17-.09-.26l.52-.85-.74-.3-.55.9c-.05.07-.14.11-.22.07l-.09-.04c-.1-.04-.14-.17-.09-.26Zm1.89-.68l.47-.76-.74-.3-.47.76.74.3Z"/>
    <path class="cls-20" d="m240.51,164.66l-.09.04c-.08.03-.17,0-.22-.07l-.55-.9-.74.3.52.85c.06.09.02.22-.09.26l-.09.04c-.08.03-.17,0-.22-.07l-.55-.9-.51.21c-.09.04-.2,0-.23-.1h0c-.04-.09,0-.2.1-.23l.45-.18-.46-.77-.48.2c-.09.04-.2,0-.23-.1h0c-.04-.09,0-.2.1-.23l.42-.17-.51-.82c-.06-.09-.02-.22.09-.26l.09-.03c.08-.03.17,0,.22.07l.54.87.74-.3-.51-.82c-.06-.09-.02-.22.09-.26l.08-.03c.08-.03.17,0,.22.07l.54.87.51-.21c.09-.04.2,0,.23.1h0c.04.09,0,.2-.1.23l-.45.18.47.76.48-.2c.09-.04.2,0,.23.1h0c.04.09,0,.2-.1.23l-.42.17.52.85c.06.09.02.22-.09.26Zm-1.07-1.24l-.47-.76-.74.3.47.76.74-.3Z"/>
    <path class="cls-25" d="m160.97,129.32l-.09.04c-.08.03-.17,0-.22-.07l-.55-.9-.74.3.52.85c.06.09.02.22-.09.26l-.09.04c-.08.03-.17,0-.22-.07l-.55-.9-.51.21c-.09.04-.2,0-.23-.1h0c-.04-.09,0-.2.1-.23l.45-.18-.46-.77-.48.2c-.09.04-.2,0-.23-.1h0c-.04-.09,0-.2.1-.23l.42-.17-.5-.82c-.06-.09-.02-.22.09-.26l.09-.03c.08-.03.17,0,.22.07l.54.87.74-.3-.5-.82c-.06-.09-.02-.22.09-.26l.08-.03c.08-.03.17,0,.22.07l.54.87.51-.21c.09-.04.2,0,.23.1h0c.04.09,0,.2-.1.23l-.45.18.47.76.48-.2c.09-.04.2,0,.23.1h0c.04.09,0,.2-.1.23l-.42.17.52.85c.06.09.02.22-.09.26Zm-1.07-1.24l-.47-.76-.74.3.47.76.74-.3Z"/>
    <path class="cls-38" d="m44.45,188.44c1.83,1.59.63,2.77-.09,2.34-.31-.18-.4-.58-.13-.84.12-.12.38-.02.35.16-.02.15.15.16.19,0,.05-.22-.14-.45-.27-.61-.29-.38-.66-.87-1.19-.85-.79.03-1.48.96-.82,2.05.94,1.57,3.68,1.02,3.83-.85.08-1.02-.51-1.99-1.41-2.45-.18-.09-.03-.33.14-.29,1.27.27,1.98,1.71,1.77,2.93-.21,1.25-1.35,2.05-2.58,2.08-1.29.03-2.52-.87-2.61-2.2-.1-1.47,1.54-2.58,2.82-1.47Z"/>
    <path class="cls-38" d="m120.98,98.96c1.83,1.59.63,2.77-.09,2.34-.31-.18-.4-.58-.13-.84.12-.12.38-.02.35.16-.02.15.15.16.19,0,.05-.22-.14-.45-.27-.61-.29-.38-.66-.87-1.19-.85-.79.03-1.47.96-.82,2.05.94,1.57,3.67,1.02,3.82-.85.08-1.02-.51-1.99-1.41-2.45-.18-.09-.03-.33.14-.29,1.27.27,1.98,1.71,1.77,2.93-.21,1.25-1.35,2.05-2.58,2.08-1.29.03-2.52-.86-2.61-2.2-.1-1.47,1.54-2.58,2.82-1.47Z"/>
    <polygon class="cls-38" points="236.05 182.9 234.35 182.61 234.27 183.76 233.72 183.73 233.84 181.97 235.53 182.25 235.6 180.9 237.16 181.12 237.42 179.74 237.96 179.84 237.6 181.75 236.12 181.53 236.05 182.9"/>
    <polygon class="cls-38" points="29.83 158.63 31.54 158.35 31.62 159.5 32.17 159.46 32.05 157.7 30.35 157.98 30.28 156.63 28.73 156.85 28.46 155.47 27.92 155.58 28.28 157.48 29.76 157.26 29.83 158.63"/>
    <path class="cls-13" d="m19.7,235.52h0c0,.27.37.5.83.5h207.04c.46,0,.83-.22.83-.5h0c0-.27-.37-.5-.83-.5H20.53c-.46,0-.83.22-.83.5Z"/>
    <path class="cls-12" d="m23.34,174.93l-.94.59s.25.34.67.1c.51-.3.27-.69.27-.69Z"/>
    <g>
      <path class="cls-24" d="m127.2,130.08c-.4-.27-3.16,1.27-3.08,1.71.08.44-1.56,4.9-1.56,4.9l-3.68-2.59s-.61-1.03-.73-1.19c-.23-.3-.58-.57-.85-.49-.27.08.28.38.32.44.11.17-.24.26-.24.26,0,0-1.08-.46-1.13-.79-.05-.33-.33-1-.54-.83-.11.09-.06.58,0,.81-.09-.26-.21-.55-.31-.57-.17-.04-.23.18-.19.28.04.1.41,1.2.51,1.32.09.12,1.87,1.29,2.14,1.55,0,0,5.08,4.79,5.42,4.9.3.09,1.14-1.81,1.99-3.1.85-1.29,3.21-5.78,1.95-6.61Z"/>
      <path class="cls-2" d="m123.19,134.01l3.45.02s-.11-2.82-.24-4.16c-.16-1.62-.49-3.7-.69-3.64-.54.18-1.25.55-1.63,1.2-1.32,2.24-.9,6.57-.9,6.57Z"/>
      <path class="cls-20" d="m124.6,129.77c-.02.5-.05,14.08-.05,14.08,6.52,2.41,9.72-.39,9.72-.39,0,0-1.11-9.43-.99-10.74.08-.87,0-6.48-.56-6.59-.73-.14-1.82-.33-2.72-.34-.76,0-3.7.23-4.21.46,0,0-1.09,1.41-1.19,3.51Z"/>
      <path class="cls-8" d="m127.48,115.75s-2.38-.65-2.69,1.38c0,0-1.95.24-1.18,2.14,0,0-1.7,1.4.07,3.61,0,0,0,2.46,2.77,1.99,0,0,.6.74,1.8.26,1.21-.47,1.45-.88,1.45-.88,0,0,2.36.15,2.58-2,0,0,1.44-.71-.02-2.43,0,0,.76-2.83-1.75-3.07,0,0-.86-2.53-3.03-1.01Z"/>
      <path class="cls-24" d="m130.03,121.36c-.06.52.17.98.52,1.02.35.04.69-.34.75-.86.06-.52-.17-.98-.52-1.02-.35-.04-.69.34-.75.86Z"/>
      <path class="cls-24" d="m124.03,121.46c.09.52.45.89.8.82.35-.06.56-.53.47-1.05-.09-.52-.45-.89-.8-.82-.35.06-.56.53-.47,1.05Z"/>
      <path class="cls-24" d="m127.05,124.26s0,1.39,0,2.11c0,.27.18.5.45.55.7.15,2.04.27,2.73-.71.06-.09.08-.2.05-.31l-.8-3.05-2.42,1.4Z"/>
      <path class="cls-17" d="m127.05,125.02c.75.19,1.59,0,2.42-.76.1-.1.2-.2.29-.3l-.29-1.09-2.42,1.4s0,.34,0,.76Z"/>
      <path class="cls-24" d="m127.45,117.38s1.11.04,1.95.92c.84.88,1.85,3.75-.06,5.53-1.91,1.78-3.95.15-4.34-1.75-.38-1.9-.09-4.5,2.44-4.7Z"/>
      <path class="cls-13" d="m117.69,133.21l-.14.16c-.07.08-.2.09-.27.02l-3.08-2.8c-.08-.07-.08-.19,0-.27l.14-.16c.07-.08.2-.09.27-.02l3.08,2.8c.08.07.08.19,0,.27Z"/>
      <path class="cls-24" d="m109.35,158.43s-.42.86-1.21.95c-.79.09-2.74-.95-3.17-.91-.43.04-.61.26-.61.26l4.44,4,1.19-1.35.69-1.13-1.34-1.82Z"/>
      <path class="cls-2" d="m107.67,159.34s.69,1.51,1.48,1.75c.79.25.84.16.91.4.06.25-1.04,1.52-1.04,1.52l-5.01-4.49c-.33-.33-.27-.74.21-.69.33.03.64.14.83.19.59.14,2.63,1.31,2.63,1.31Z"/>
      <path class="cls-18" d="m134.27,143.46c-.45-.53-8.73-.14-8.73-.14,0,0-7.45-.41-9.11.59-.46.28-7.01,13.58-7.93,14.73l2.11,2.03s5.46-6.52,6.78-8.1c.91-1.08,1.88-2.62,2.57-4.05,2.78,1.02,7.24,2,12.96,1.06,2.58-.42,1.8-5.6,1.35-6.13Z"/>
      <path class="cls-24" d="m129.19,158.87s-.23,2.63-.65,3.36c-.42.73.02,1.97.04,2.14.02.17.89.41,2.26.27,1.37-.15,1.35-.46,1.24-.97-.11-.51-.84-1.17-.89-1.65-.04-.49.42-2.24.42-2.24l-2.43-.91Z"/>
      <path class="cls-2" d="m131.01,164.84c1.41-.15,1.24-.84,1.13-1.37-.07-.33-.48-.72-.72-1.08-.13.1-.33.28-.95.46-.64.19-1.51-.18-2.07-.42-.2.74-.21,1.68-.19,1.82.02.18,1.38.74,2.8.59Z"/>
      <path class="cls-25" d="m130.23,148.39c-.29,2.15-1.7,12.87-1.7,12.87l3.28.41s4.03-13.99,3.83-16.13c-.21-2.14-1.72-2.32-1.72-2.32,0,0-2.93-.53-3.69,5.17Z"/>
      <path class="cls-12" d="m126.17,122.79l2.21-.31s.07.85-.9,1.01c-1.18.2-1.31-.7-1.31-.7Z"/>
      <path class="cls-8" d="m125.35,118.12s1.16-.28,1.9-.02c.74.27,2.75,2.69,3.19,2.49.44-.21.38-1.92.15-2.22-.23-.3-1.2-1.29-1.29-1.33-.09-.04-1.14-.28-1.33-.28s-1.63.28-1.63.28l-.99,1.08Z"/>
      <path class="cls-24" d="m144.62,147.53c-.4,0-1.47-.22-1.81-.22-.27,0-.84-.27-1.08-.27-.48-1.04-2.81-6.79-3.47-8.43-.86-2.16-3.74-9.63-3.74-9.63l-2.87,1.07s2.41,5.77,3.59,8.65c1.01,2.48,5.02,8.86,5.04,8.89.4.85,1.57.5,1.57.5,0,0,1.9-.2,2.3-.2.18,0,.86-.37.46-.36Z"/>
      <path class="cls-2" d="m136.56,132.31l-3.61,2.46s-1.03-2.77-1.75-4.46c-.62-1.46.92-4.45,1.62-4.18,1.57.61,3.74,6.18,3.74,6.18Z"/>
    </g>
    <g>
      <path class="cls-40" d="m184.41,192.07c2.59-2.1,9.37.8,10.38,2.15.99,1.33,3.01,15.36,1.53,16.33-1.48.97-6.08,2.94-7.99,1.2-1.91-1.73-3.92-19.69-3.92-19.69Z"/>
      <path class="cls-29" d="m182.96,191.68s-4.4-2.25-4.99-3.36c-.6-1.12-3.07-4.74-3.07-4.74,0,0-1.28.02-1.62.59.41,1.55,1.68,5.84,3.32,7.1,1.64,1.26,5.95,3.87,5.95,3.87l.42-3.47Z"/>
      <path class="cls-29" d="m173.74,185.57c.62-.17,1.41-.51,1.99-.77-.25-.33-.42-.59-.46-.71-.18-.56.93-2.74.75-2.92-.33-.11-.93,1.01-1.04.9-.11-.11-.2-2.66-.57-2.65-.37,0-.09,1.9-.32,1.92-.26.02-.49.09-.73.19-.24.1-.55.23-.68.45-.12.19-.29.51.1,1.26.55,1.05.45.82.77,1.81.03.08.09.27.19.52Z"/>
      <g>
        <path class="cls-29" d="m181.99,218.63s-.13,2.74-.13,4.42,2.58,8.23,2.34,9.17c-.23.94,2.43.81,2.43.81,0,0,.18-5.09-.5-7.5-.69-2.41,0-7.36,0-7.36l-4.13.47Z"/>
        <path class="cls-29" d="m188.45,217.3s.86,4.54,1.57,5.57c.7,1.04,4.48,8.1,4.48,9s2.38.17,2.38.17c0,0-2.01-7.73-2.81-10.07-.8-2.34-1.1-4.28-1.1-4.28l-4.51-.39Z"/>
      </g>
      <path class="cls-1" d="m181.18,211.32c-.27,1.66-2.68,10.24-2.68,10.24,3.71,1.01,14.36,1.66,18.34-.9,0,0-3.14-11.83-4.97-14.03l-3.42-.56-6.06-.65s-1.01,4.74-1.21,5.91Z"/>
      <path class="cls-33" d="m180.15,235.09h7.31s.15-2.64-.35-3.15c-.5-.5-.37.06-1.2.38-.84.32-1.38-.45-1.76-.83-.38-.38-.11,1.22-1.72,1.22s-2.64,1.64-2.28,2.38Z"/>
      <path class="cls-33" d="m194.43,231.59c-.38.09-1.57,1.06-1.96,2.11-.39,1.05-.28,1.43-.28,1.43,0,0,1.21.54,3.53.37,2.32-.17,1.97-.42,1.97-.42,0,0-.17-2.39-.56-3.12-.39-.73-2.03-.51-2.69-.36Z"/>
      <path class="cls-29" d="m193.76,201.68s1.38,3.28.97,4.43c-.42,1.15-1.5,5.35-1.5,5.35,0,0,.93.81,1.56.68.84-1.29,3.1-4.96,2.95-6.95-.15-1.99-1.04-5.23-1.04-5.23l-2.94,1.72Z"/>
      <path class="cls-29" d="m195.49,210.91c-.52-.34-1.27-.68-1.83-.93-.08.39-.15.68-.21.78-.29.48-2.56,1.1-2.57,1.34-.01.25,1.24,0,1.23.15,0,.15-1.69,1.87-1.45,2.13.24.26,1.52-1.37,1.67-1.2.15.16-1.39,2.08-.97,2.17.42.09,1.25-1.79,1.48-1.68.23.11-.64,1.8-.46,1.98.17.18.34-.22.57-.67.23-.45.5-1.1.6-1,.1.11-.26,1.38-.03,1.51.23.13,1.31-3.52,1.73-4.13.05-.07.13-.23.25-.47Z"/>
      <path class="cls-33" d="m197.74,201.36s-1.22,1.8-3.85,2.61c-.27-1.42-.56-2.08-.61-2.08-.15.02-.71,2.27-1.34,4.84-2.1,1.21-9.68.62-9.69-.67,0-.98,1.28-8.62-.09-9.69-.5-.39-4.23-3.2-4.23-3.2,0,0,1.09-2.74,2.18-3.82,0,0,2.29.92,4.32,1.74,2.66,1.07,4.82,1.57,6.3,2.25,5.05,2.3,5.96,3.85,7,8.02Z"/>
      <path class="cls-11" d="m190.9,193.41c-1.38,4.13-.64,11.48,1.31,13.67.56-1.36-.54-5.5,1.06-12.51.05-.36-2.23-1.54-2.37-1.16Z"/>
      <path class="cls-11" d="m187.18,192.01c-2,2.17-4.59,10.98-4.65,11.38.09-7.04,2.38-11.13,2.82-11.95.29-.2,1.87.36,1.83.57Z"/>
      <path class="cls-29" d="m187.18,190.36c.09,1.27-.27,2.32-.48,2.74,0,0,1.3,1.28,3.47.53-.11-1.13,0-2.41.33-3.83l-3.32.56Z"/>
      <path class="cls-20" d="m187.09,191.87c.08-.44.13-.95.09-1.5l3.32-.56c-.08.36-.15.7-.21,1.04-1.04.76-2.21,1.17-3.21,1.02Z"/>
      <path class="cls-29" d="m187,183.77c-1.2,1.11-2.89,4.82-1.47,6.54,1.8,2.18,5,.78,6.94-2.05,1.94-2.83-3.62-6.2-5.47-4.49Z"/>
      <path class="cls-25" d="m190.65,185.22s1.39.04.84,1.35c-.55,1.31-1.54,1.75-1.01,2.28.36.36.06,1.14-.11,1.57-.09.22.3-.25.82-.29,1.28-.11,2.22-.49,2.61-2,0,0,1.14-1.57.85-3.4-.21-1.35-1.3-1.55-1.3-1.55,0,0-.3-.61-1.73-1.3-2.02-.97-5.03-1.63-5.03.23,0,1.16-.5,2.86,4.06,3.11Z"/>
      <path class="cls-25" d="m192.26,184.04c1.98-3,5.88-1.61,6.28.54.34,1.83,1.85,2.67,4.36,2.77,3.4.14,2.28,4.99.3,5.27,2.2,3.72-5.31,6.02-5.09,2.36-2.75-.5-4.06-2.01-3.5-4,.56-1.99.84-7.09-1.05-6.17-1.97.62-1.3-.76-1.3-.76Z"/>
      <path class="cls-29" d="m190.26,187.83c.1-.05,1.44-.64,1.85.07.34.58-.31,1.82-1.32,1.82s-1.8-1.25-.54-1.9Z"/>
      <path class="cls-26" d="m187.46,235.09s.03-.55.02-1.19c-.86.37-5.56.31-7.27.28-.15.34-.18.68-.06.92h7.31Z"/>
      <path class="cls-26" d="m195.72,235.49c2.32-.17,1.97-.42,1.97-.42,0,0-.04-.55-.12-1.2h0c-1.62,1.44-4.14.71-5.25.28-.21.72-.13.98-.13.98,0,0,1.21.54,3.53.37Z"/>
    </g>
    <g>
      <g>
        <path class="cls-16" d="m68.37,188.11s2.06-.19,3.33,2.03c1.27,2.22,3.1,7.74,3.79,8.18.7.44,4.9,3.2,5.51,2.92.61-.28,1.72-3.13,2.16-3.25.44-.12.51.33.35.63-.16.3-.35.65-.18.76l.17.11s1.39-.86,1.78-.74c.39.12-.63,1.67-.57,2.08.07.41-.66,1.21-.78,1.44-.12.23-.2.61-2.42.88-2.22.26-5.81-.68-7.76-2.2-2.63-2.05-5.53-9.74-5.7-10.56-.44-2.07.32-2.27.32-2.27Z"/>
        <path class="cls-20" d="m72,189.7c-1.32-2.21-3.69-1.47-3.69-1.47,0,0-.92.14-.49,2.21.1.48,1.2,3.52,2.6,6.17.82-1.05,2.46-2.19,3.68-2.77-.61-1.46-1.55-3.22-2.1-4.14Z"/>
        <path class="cls-29" d="m76.68,225.94s1.33,5.42,2.32,6.27c.99.85,4.22,2.48,3.38,2.66-.85.18-7.1.32-6.93-.72.17-1.04.35-1.71.35-1.71l-1.66-3.87,2.54-2.62Z"/>
        <path class="cls-22" d="m82.8,235.09c-1.53.15-5.98.31-7.28.15,0,0-.24-.05-.07-1.09.04-.26.08-.49.12-.69,1.18.31,3.74-.35,4.76-.48,1.1.53,2.35,1.32,2.75,1.38.58.1.58.65-.28.74Z"/>
        <path class="cls-29" d="m62.29,229.76s.25,2.2.25,2.8-.56,2.31-.3,2.57,7.71.23,7.71-.02-1.32-.99-3.11-1.5c-1.79-.51-1.35-2.66-1.57-3.85h-2.98Z"/>
        <path class="cls-22" d="m70.07,235.31c0-.57-1.22-1.11-2.81-1.6-1.69.57-4.03.1-4.91-.07-.27.7-.38,1.66-.19,1.71.22.06,7.9.06,7.9-.04Z"/>
        <polygon class="cls-22" points="72.39 203.28 78.73 229.47 74.72 230.37 65.14 204.78 72.39 203.28"/>
        <path class="cls-15" d="m70.9,204.52l-2.07,6.09-2.62,20.15-3.99-.26s-1.35-20.07-.88-25.55l9.56-.43Z"/>
        <path class="cls-1" d="m73.93,204.61c-.85-3.22-1.96-7.57-2.27-9.45-.51-3.16-2.23-7.02-2.23-7.02,0,0-1.89-.3-3.3-.22-2.72.15-6.65,1.03-6.65,1.03l1.38,17.56c4.29-.09,9-.47,13.07-1.9Z"/>
        <path class="cls-25" d="m60,179.42c-.03,1.64.51,2.36,1.54,3.65,1.03,1.29,2.83,2.81,2.83,2.81l5.08-3.24s-.04-.7-.22-2.76c-.75-8.42-9.21-1.74-9.23-.46Z"/>
        <path class="cls-29" d="m61.28,182.87c.21.64.72,1.05,1.16.91.43-.14.62-.77.42-1.42-.21-.64-.72-1.05-1.16-.91-.43.14-.62.77-.42,1.42Z"/>
        <path class="cls-29" d="m68.26,181.7c-.19.65,0,1.28.44,1.41.44.13.95-.29,1.14-.94.19-.65,0-1.28-.44-1.41-.44-.13-.95.29-1.14.94Z"/>
        <path class="cls-29" d="m63.64,184.87l-.19,3.44s.42,1.16,2.3,1.17c1.39,0,1.23-3.1,1.23-3.1l-.11-1.51h-3.23Z"/>
        <path class="cls-35" d="m66.92,187.46s.02,0,.03,0c.06-.59.03-1.08.03-1.08l-.11-1.51h-3.23l-.03.46c.41.69,1.6,2.13,3.31,2.13Z"/>
        <path class="cls-29" d="m65.02,177c-1.09.16-1.89.93-2.46,1.87-1.15,1.87-.21,4.61.1,5.24.31.63,1.57,2.25,3.44,2.25s2.98-2.17,3.13-3.84c.21-2.23-.19-4.54-2.31-5.31-.58-.21-1.26-.31-1.9-.21Z"/>
        <path class="cls-25" d="m62.01,181.45s.53-2.97,2.22-3.64c1.69-.67,4.18-.49,4.95,2.41,0,0-.47-3.49-1.39-4.41-.92-.92-2.78-1.02-2.78-1.02l.61.61s-.67-.22-1.67-.22-1.19.24-1.19.24c0,0,.69.11.69.33s-1.82.3-1.82.3c0,0-.15,1.48-.74,2.07s1.11,3.33,1.11,3.33Z"/>
        <path class="cls-9" d="m88.36,195.69c-.66-.4-2.03-1.02-2.86-.96-.17.01-.33-.08-.42-.23l-1.58-2.77c-.09-.15-.08-.34.01-.48.45-.71.59-2.24.58-3.02l-3.45-2.03c-.66.38-1.85,1.29-2.21,2.06-.07.16-.23.26-.4.26h-3.11c-.17,0-.33-.09-.4-.25-.38-.77-1.59-1.67-2.26-2.05l-3.4,2.04c0,.78.17,2.31.64,3.02.1.14.1.33.02.48l-1.52,2.77c-.08.15-.24.24-.41.23-.83-.05-2.18.57-2.84.97l.04,4.07c.66.4,2.03,1.02,2.86.96.17-.01.33.08.42.23l1.58,2.77c.09.15.08.34-.01.48-.45.71-.59,2.24-.58,3.02l3.45,2.03c.66-.38,1.85-1.29,2.21-2.06.07-.16.23-.26.4-.26h3.11c.17,0,.33.09.4.25.38.77,1.59,1.67,2.26,2.05l3.4-2.04c0-.78-.17-2.31-.64-3.02-.1-.14-.1-.33-.02-.48l1.52-2.77c.08-.15.24-.24.41-.23.83.05,2.18-.57,2.84-.97l-.04-4.07Zm-11.78,7.7c-3.11,0-5.65-2.53-5.65-5.65s2.53-5.65,5.65-5.65,5.65,2.53,5.65,5.65-2.53,5.65-5.65,5.65Z"/>
      </g>
      <path class="cls-29" d="m67.11,199.78c.8.82,4.2,2.64,5.16,3.24.1,0,.68-.02,1.5.46.58.34,1.8.48,1.52.8-.28.32-1.32-.22-1.28.09.05.31,2.14,1.57,1.89,1.86-.26.29-2.15-1.02-2.11-.75.04.28,1.91,1.29,1.55,1.7-.36.41-2.08-1.39-2.27-1.17-.19.22.92,1.32.63,1.65-.29.33-1.44-1.58-1.42-1.42.02.16.26,1.32.02,1.37-.27.05-1.2-2.85-1.74-3.15h0c-1.45-.58-4.86-2.3-5.66-3.14-1.26-1.33-3.35-3.85-4.08-5.2-1.33-2.48-.45-3.2-.45-3.2,0,0,1.02-1.82,2.35.08,1.17,1.67,3.44,5.8,4.39,6.78Z"/>
      <path class="cls-20" d="m58.96,189.09c-.47.18-1.03,1.13-.87,2.43.22,1.79,1.57,4.76,2.63,6.15,0,0,2.93-.99,4.03-2.41-.12-.33-1.87-3.74-3.25-5.19-1.22-1.29-1.9-1.22-2.54-.98Z"/>
    </g>
  </g>
  <g>
    <text class="cls-34" transform="translate(40.41 41.67)"><tspan x="0" y="0">Skill D</tspan><tspan class="cls-10" x="39.12" y="0">e</tspan><tspan x="46.54" y="0">velopment P</tspan><tspan class="cls-14" x="124.97" y="0">r</tspan><tspan x="129.65" y="0">og</tspan><tspan class="cls-39" x="145.56" y="0">r</tspan><tspan x="150.27" y="0">am</tspan></text>
    <line class="cls-32" x1="77.17" y1="51.62" x2="208.8" y2="51.62"/>
  </g>
</svg>